<svg xmlns="http://www.w3.org/2000/svg" viewBox="0 0 16 16" width="320" height="320" shape-rendering="crispEdges">
  <g fill="#222222"> 
    <rect x="3" y="2" width="10" height="1"/>
    <rect x="2" y="3" width="12" height="1"/>
    <rect x="3" y="4" width="10" height="1"/>
  </g>
  <g fill="#FFD700"> 
    <rect x="13" y="3" width="1" height="3"/>
  </g>
  <g fill="#FFD2B1"> 
    <rect x="4" y="5" width="8" height="4"/>
    <rect x="3" y="10" width="2" height="2"/> 
    <rect x="11" y="10" width="2" height="2"/> 
  </g>
  <g fill="#FFFFFF"> 
    <rect x="5" y="6" width="2" height="2"/>
    <rect x="9" y="6" width="2" height="2"/>
  </g>
  <g fill="#000000"> 
    <rect x="6" y="7" width="1" height="1"/>
    <rect x="10" y="7" width="1" height="1"/>
    <rect x="7" y="8" width="2" height="1"/>
  </g>
  <g fill="#4287f5"> 
    <rect x="14" y="5" width="1" height="2"/>
    <rect x="13" y="7" width="1" height="1"/>
  </g>
  <g fill="#8B4513"> 
    <rect x="5" y="9" width="6" height="3"/>
    <rect x="4" y="9" width="1" height="2"/>
    <rect x="11" y="9" width="1" height="2"/>
  </g>
  <g fill="#3366CC"> 
    <rect x="5" y="12" width="6" height="1"/>
    <rect x="4" y="13" width="2" height="1"/>
    <rect x="10" y="13" width="2" height="1"/>
  </g>
  <g fill="#111111"> 
    <rect x="3" y="14" width="3" height="1"/>
    <rect x="10" y="14" width="3" height="1"/>
  </g>
</svg>
