<svg xmlns="http://www.w3.org/2000/svg" viewBox="0 0 16 16" width="320" height="320" shape-rendering="crispEdges">
  <g fill="#222222"> 
    <rect x="5" y="1" width="6" height="1"/>
    <rect x="3" y="2" width="2" height="1"/>
    <rect x="11" y="2" width="2" height="1"/>
    <rect x="2" y="3" width="1" height="3"/>
    <rect x="13" y="3" width="1" height="3"/>
    <rect x="1" y="6" width="1" height="5"/>
    <rect x="14" y="6" width="1" height="5"/>
    <rect x="2" y="11" width="1" height="3"/>
    <rect x="13" y="11" width="1" height="3"/>
    <rect x="3" y="14" width="2" height="1"/>
    <rect x="11" y="14" width="2" height="1"/>
    <rect x="5" y="15" width="6" height="1"/>
  </g>
  <g fill="#777777"> 
    <rect x="4" y="3" width="8" height="11"/>
    <rect x="3" y="4" width="1" height="9"/>
    <rect x="12" y="4" width="1" height="9"/>
    <rect x="2" y="6" width="1" height="5"/>
    <rect x="13" y="6" width="1" height="5"/>
  </g>
  <g fill="#AAAAAA"> 
    <rect x="5" y="2" width="5" height="1"/>
    <rect x="4" y="3" width="3" height="1"/>
    <rect x="3" y="4" width="2" height="1"/>
    <rect x="4" y="5" width="1" height="1"/>
    <rect x="2" y="6" width="1" height="2"/>
  </g>
  <g fill="#444444"> 
    <rect x="10" y="13" width="3" height="1"/>
    <rect x="5" y="14" width="6" height="1"/>
    <rect x="12" y="10" width="1" height="3"/>
    <rect x="13" y="7" width="1" height="3"/>
    <rect x="9" y="3" width="2" height="1"/>
    <rect x="11" y="4" width="1" height="2"/>
    <rect x="6" y="11" width="4" height="1"/>
  </g>
  <g fill="#000000"> 
    <rect x="4" y="6" width="3" height="2"/>
    <rect x="9" y="6" width="3" height="2"/>
    <rect x="5" y="8" width="2" height="1"/>
    <rect x="9" y="8" width="2" height="1"/>
  </g>
  <g fill="#FF0000"> 
    <rect x="5" y="6" width="1" height="1"/>
    <rect x="10" y="6" width="1" height="1"/>
  </g>
</svg>
