<svg xmlns="http://www.w3.org/2000/svg" viewBox="0 0 16 16" width="320" height="320" shape-rendering="crispEdges">
  <g fill="#222222">
    <rect x="6" y="2" width="4" height="1"/>
    <rect x="5" y="3" width="1" height="1"/>
    <rect x="10" y="3" width="1" height="1"/>
    <rect x="4" y="4" width="1" height="1"/>
    <rect x="11" y="4" width="1" height="1"/>
    <rect x="3" y="5" width="1" height="7"/>
    <rect x="12" y="5" width="1" height="7"/>
    <rect x="4" y="12" width="1" height="1"/>
    <rect x="11" y="12" width="1" height="1"/>
    <rect x="5" y="13" width="6" height="1"/>
  </g>
  
  <g fill="#FF3333">
    <rect x="6" y="3" width="2" height="1"/>
    <rect x="10" y="4" width="1" height="1"/>
  </g>
  
  <g fill="#33CC33">
    <rect x="8" y="3" width="2" height="1"/>
    <rect x="5" y="4" width="1" height="1"/>
  </g>
  
  <g fill="#7B3F00">
    <rect x="6" y="4" width="2" height="1"/>
    <rect x="5" y="5" width="3" height="1"/>
    <rect x="10" y="5" width="1" height="1"/>
    <rect x="6" y="6" width="4" height="1"/>
  </g>
  
  <g fill="#FFFFCC">
    <rect x="8" y="4" width="2" height="1"/>
    <rect x="8" y="5" width="2" height="1"/>
    <rect x="7" y="7" width="2" height="1"/>
  </g>
  
  <g fill="#E8C396">
    <rect x="4" y="5" width="1" height="1"/>
    <rect x="11" y="5" width="1" height="1"/>
    <rect x="4" y="6" width="2" height="1"/>
    <rect x="10" y="6" width="2" height="1"/>
    <rect x="5" y="7" width="2" height="1"/>
    <rect x="9" y="7" width="2" height="1"/>
    <rect x="4" y="8" width="8" height="1"/>
  </g>
  
  <g fill="#C2955D">
    <rect x="5" y="8" width="1" height="1"/>
    <rect x="9" y="8" width="1" height="1"/>
    <rect x="4" y="7" width="1" height="1"/>
    <rect x="11" y="7" width="1" height="1"/>
  </g>
  
  <g fill="#AAAAAA">
    <rect x="4" y="9" width="8" height="3"/>
    <rect x="5" y="12" width="6" height="1"/>
  </g>
  
  <g fill="#EEEEEE">
    <rect x="5" y="9" width="1" height="3"/>
    <rect x="7" y="10" width="2" height="1"/>
    <rect x="6" y="12" width="2" height="1"/>
  </g>
</svg>
